<svg xmlns="http://www.w3.org/2000/svg" viewBox="0 0 40 40" width="40" height="40">
  <defs>
    <linearGradient id="bg" x1="0" y1="0" x2="40" y2="40" gradientUnits="userSpaceOnUse">
      <stop offset="0" stop-color="#EF5A26" />
      <stop offset="1" stop-color="#C93C14" />
    </linearGradient>
  </defs>
  <rect width="40" height="40" rx="9" fill="url(#bg)" />
  <path
    d="M20 4c1.4 2.8-.2 4.5-1.4 5.8-1.4 1.6-2.2 3.2-2.2 5.1 0 2.9 2.3 5 5.2 5 3.4 0 6-2.7 6-6.2 0-2.1-.9-3.7-1.9-4.9 1.5.8 3.2 2.8 3.2 5.7 0 4.5-3.7 8.1-8.5 8.1S11.9 19.1 11.9 15c0-4.8 3.8-7.3 5.7-9.1C18.5 4.2 19.3 3.3 20 4z"
    fill="#FFD27A"
  />
  <rect x="8.5" y="24.5" width="23" height="2.3" rx="1.15" fill="#FFF3E4" />
  <circle cx="14" cy="25.6" r="3.7" fill="#FFFFFF" />
  <circle cx="21.3" cy="25.6" r="3.7" fill="#FFE4C4" />
  <circle cx="28.6" cy="25.6" r="3.7" fill="#FFFFFF" />
  <rect x="7.2" y="32.5" width="25.6" height="2.4" rx="1.2" fill="#FFFFFF" opacity="0.85" />
</svg>
